# xmcd
#
# Track frame offsets:
#	150
#	17701
#	29778
#	47605
#	62919
#	79187
#	97865
#	115167
#	133445
#	147963
#	160955
#
# Disc length: 2371 seconds
#
# Revision: 1
# Processed by: cddbd v1.5.2PL0 Copyright (c) Steve Scherf et al.
# Submitted via: audiograbber 1.83.01
#
DISCID=9909410b
DTITLE=Tracy Lawrence - For The Love
DYEAR=2007
DGENRE=Country
TTITLE0=Find Out Who Your Friends Are
TTITLE1=Just Like Her
TTITLE2=You Can't Hide Redneck
TTITLE3=For The Love
TTITLE4=As Easy As Our Blessings
TTITLE5=Speed Of Flight
TTITLE6=Rock And A Soft Place
TTITLE7=Til I Was A Daddy Too
TTITLE8=You're Why God Made Me
TTITLE9=Just Like That
TTITLE10=Find Out Who Your Friends Are
EXTD=
EXTT0=
EXTT1=
EXTT2=
EXTT3=
EXTT4=
EXTT5=
EXTT6=
EXTT7=
EXTT8=
EXTT9=
EXTT10=
PLAYORDER=
